<?xml version="1.0" encoding="utf-8"?>
<svg xmlns="http://www.w3.org/2000/svg" style="margin: auto; background: rgb(221, 221, 221); display: block; shape-rendering: auto;" width="280" height="34" preserveAspectRatio="xMidYMid">
<style type="text/css">
  text {
    text-anchor: middle; font-size: 38px; opacity: 0;
  }
</style>
<g style="transform-origin: 140px 17px; transform: scale(1.11765);">
<g transform="translate(140,17)">
  <g transform="translate(0,0)"><g class="path" style="transform: matrix(0.01, 0, 0, 0.01, 0, 0); transform-origin: -103.875px -1.68244px; animation: 2s linear 0s 1 normal forwards running bounce-in-3c5d3fec-cefa-49dd-861d-9251e8cf5fb7;"><path d="M1.33 0L9.46 0L9.46-0.86L6.84-0.86L6.84-9.13L9.99-9.13L15.31 0L20.32 0L20.32 0Q20.32-0.73 19.92-0.83L19.92-0.83L19.92-0.83Q19.76-0.86 19.52-0.86L19.52-0.86L18.26-0.86L12.92-9.43L12.92-9.43Q16.07-10.19 17.23-12.72L17.23-12.72L17.23-12.72Q17.66-13.71 17.66-14.74L17.66-14.74L17.66-14.74Q17.66-17.23 15.51-18.73L15.51-18.73L15.51-18.73Q13.75-19.92 11.16-19.92L11.16-19.92L1.33-19.92L1.33-19.06L3.98-19.06L3.98-0.86L1.33-0.86L1.33 0zM6.84-19.06L10.16-19.06L10.16-19.06Q13.02-19.06 14.11-16.73L14.11-16.73L14.11-16.73Q14.54-15.77 14.54-14.71L14.54-14.71L14.54-14.71Q14.54-12.32 12.88-10.99L12.88-10.99L12.88-10.99Q11.75-10.09 10.26-10.09L10.26-10.09L6.84-10.09L6.84-19.06" fill="#ffffff" stroke="none" stroke-width="none" transform="translate(-114.69998168945312,8.277560988206131)" style="fill: rgb(255, 255, 255);"></path></g><g class="path" style="transform: matrix(0.01, 0, 0, 0.01, 0, 0); transform-origin: -85.86px 1.22256px; animation: 2s linear 0.101538s 1 normal forwards running bounce-in-3c5d3fec-cefa-49dd-861d-9251e8cf5fb7;"><path d="M24.47-7.07L24.47-7.07L24.47-7.07Q24.47-12.22 27.29-13.35L27.29-13.35L27.29-13.35Q28.02-13.61 28.82-13.61L28.82-13.61L28.82-13.61Q32.51-13.61 33.10-8.96L33.10-8.96L33.10-8.96Q33.20-8.17 33.20-7.21L33.20-7.21L33.20-7.21Q33.20-1.63 30.15-0.66L30.15-0.66L30.15-0.66Q29.55-0.50 28.92-0.50L28.92-0.50L28.92-0.50Q25.57-0.50 24.70-4.48L24.70-4.48L24.70-4.48Q24.47-5.64 24.47-7.07zM28.92-14.44L28.92-14.44L28.92-14.44Q25.73-14.44 23.61-12.25L23.61-12.25L23.61-12.25Q21.65-10.23 21.65-7.21L21.65-7.21L21.65-7.21Q21.65-3.02 24.70-0.93L24.70-0.93L24.70-0.93Q26.56 0.33 28.82 0.33L28.82 0.33L28.82 0.33Q32.01 0.33 34.10-1.93L34.10-1.93L34.10-1.93Q36.03-3.98 36.03-7.07L36.03-7.07L36.03-7.07Q36.03-11.26 32.94-13.28L32.94-13.28L32.94-13.28Q31.11-14.44 28.92-14.44" fill="#ffffff" stroke="none" stroke-width="none" transform="translate(-114.69998168945312,8.277560988206131)" style="fill: rgb(255, 255, 255);"></path></g><g class="path" style="transform: matrix(0.01, 0, 0, 0.01, 0, 0); transform-origin: -68.05px 1.38756px; animation: 2s linear 0.203077s 1 normal forwards running bounce-in-3c5d3fec-cefa-49dd-861d-9251e8cf5fb7;"><path d="M54.45-0.83L54.45-0.83L52.79-0.83L52.79-14.11L47.58-14.11L47.58-13.28L50.30-13.28L50.30-6.11L50.30-6.11Q50.30-3.12 48.21-1.73L48.21-1.73L48.21-1.73Q47.28-1.10 46.29-1.10L46.29-1.10L46.29-1.10Q43.56-1.10 43.13-3.88L43.13-3.88L43.13-3.88Q43.06-4.35 43.06-4.88L43.06-4.88L43.06-14.11L38.02-14.11L38.02-13.28L40.57-13.28L40.57-5.38L40.57-5.38Q40.61 0.30 45.32 0.33L45.32 0.33L45.32 0.33Q47.81 0.33 49.41-1.69L49.41-1.69L49.41-1.69Q50.00-2.46 50.37-3.39L50.37-3.39L50.60 0L55.28 0L55.28 0Q55.28-0.73 54.79-0.80L54.79-0.80L54.79-0.80Q54.65-0.83 54.45-0.83" fill="#ffffff" stroke="none" stroke-width="none" transform="translate(-114.69998168945312,8.277560988206131)" style="fill: rgb(255, 255, 255);"></path></g><g class="path" style="transform: matrix(0.01, 0, 0, 0.01, 0, 0); transform-origin: -51.715px 1.12256px; animation: 2s linear 0.304615s 1 normal forwards running bounce-in-3c5d3fec-cefa-49dd-861d-9251e8cf5fb7;"><path d="M62.49-0.56L62.49-0.56L62.49-0.56Q64.78-0.56 65.58-1.96L65.58-1.96L65.58-1.96Q65.88-2.46 65.88-3.05L65.88-3.05L65.88-3.05Q65.88-4.45 63.85-5.45L63.85-5.45L63.85-5.45Q63.42-5.68 62.42-6.11L62.42-6.11L62.42-6.11Q59.70-7.24 58.80-8.23L58.80-8.23L58.80-8.23Q57.84-9.33 57.84-10.79L57.84-10.79L57.84-10.79Q57.84-13.08 60.36-14.01L60.36-14.01L60.36-14.01Q61.53-14.44 62.89-14.44L62.89-14.44L62.89-14.44Q65.08-14.44 66.67-13.51L66.67-13.51L66.67-13.51Q66.67-14.48 67.14-14.61L67.14-14.61L67.14-14.61Q67.34-14.64 67.57-14.64L67.57-14.64L67.57-10.49L66.71-10.49L66.71-10.49Q66.64-13.55 63.32-13.58L63.32-13.58L63.32-13.58Q60.83-13.58 60.23-12.12L60.23-12.12L60.23-12.12Q60.06-11.72 60.06-11.29L60.06-11.29L60.06-11.29Q60.06-9.86 62.12-8.87L62.12-8.87L62.12-8.87Q62.59-8.63 63.58-8.23L63.58-8.23L63.58-8.23Q66.27-7.14 67.17-6.14L67.17-6.14L67.17-6.14Q68.13-5.08 68.13-3.62L68.13-3.62L68.13-3.62Q68.13-0.93 65.28-0.03L65.28-0.03L65.28-0.03Q64.18 0.33 62.89 0.33L62.89 0.33L62.89 0.33Q60.50 0.30 58.74-0.86L58.74-0.86L58.74-0.86Q58.74 0 58.30 0.13L58.30 0.13L58.30 0.13Q58.11 0.17 57.84 0.17L57.84 0.17L57.84-4.88L58.77-4.88L58.77-4.88Q58.84-0.60 62.49-0.56" fill="#ffffff" stroke="none" stroke-width="none" transform="translate(-114.69998168945312,8.277560988206131)" style="fill: rgb(255, 255, 255);"></path></g><g class="path" style="transform: matrix(0.01, 0, 0, 0.01, 0, 0); transform-origin: -35.66px -2.51244px; animation: 2s linear 0.406154s 1 normal forwards running bounce-in-3c5d3fec-cefa-49dd-861d-9251e8cf5fb7;"><path d="M77.16-0.83L77.16-0.83L75.50-0.83L75.50-8.00L75.50-8.00Q75.50-11.02 77.60-12.38L77.60-12.38L77.60-12.38Q78.46-12.95 79.39-12.95L79.39-12.95L79.39-12.95Q81.41-12.95 82.21-11.06L82.21-11.06L82.21-11.06Q82.58-10.16 82.58-9.06L82.58-9.06L82.58-2.82L82.58-2.82Q82.58-1.29 81.85-1.00L81.85-1.00L81.85-1.00Q81.38-0.83 80.25-0.83L80.25-0.83L80.25 0L87.56 0L87.56 0Q87.56-0.73 87.06-0.80L87.06-0.80L87.06-0.80Q86.93-0.83 86.73-0.83L86.73-0.83L85.07-0.83L85.07-9.06L85.07-9.06Q85.07-12.68 82.68-13.98L82.68-13.98L82.68-13.98Q81.75-14.44 80.68-14.44L80.68-14.44L80.68-14.44Q78.23-14.44 76.57-12.65L76.57-12.65L76.57-12.65Q75.87-11.89 75.50-10.92L75.50-10.92L75.50-21.58L70.52-21.58L70.52-20.75L73.01-20.75L73.01-2.82L73.01-2.82Q73.01-1.29 72.15-1.00L72.15-1.00L72.15-1.00Q71.65-0.83 70.52-0.83L70.52-0.83L70.52 0L77.99 0L77.99 0Q77.99-0.73 77.50-0.80L77.50-0.80L77.50-0.80Q77.36-0.83 77.16-0.83" fill="#ffffff" stroke="none" stroke-width="none" transform="translate(-114.69998168945312,8.277560988206131)" style="fill: rgb(255, 255, 255);"></path></g><g class="path" style="transform: matrix(0.01, 0, 0, 0.01, 0, 0); transform-origin: -17.78px 1.22256px; animation: 2s linear 0.507692s 1 normal forwards running bounce-in-3c5d3fec-cefa-49dd-861d-9251e8cf5fb7;"><path d="M101.40 0.33L101.40 0.33L101.40 0.33Q103.96 0.33 104.22-2.76L104.22-2.76L104.22-2.76Q104.26-2.96 104.26-3.12L104.26-3.12L103.39-3.15L103.39-3.15Q103.16-0.73 102.10-0.70L102.10-0.70L102.10-0.70Q101.24-0.76 101.20-2.42L101.20-2.42L101.20-9.43L101.20-9.43Q101.20-14.18 96.46-14.44L96.46-14.44L96.46-14.44Q96.16-14.44 95.86-14.44L95.86-14.44L95.86-14.44Q92.14-14.44 90.88-12.72L90.88-12.72L90.88-12.72Q90.48-12.15 90.48-11.59L90.48-11.59L90.48-11.59Q90.48-10.56 91.44-10.39L91.44-10.39L91.44-10.39Q91.61-10.36 91.77-10.36L91.77-10.36L91.77-10.36Q92.54-10.36 92.90-11.32L92.90-11.32L92.90-11.32Q93.37-12.55 93.53-12.78L93.53-12.78L93.53-12.78Q94.16-13.61 95.49-13.61L95.49-13.61L95.49-13.61Q98.61-13.41 98.71-10.19L98.71-10.19L98.71-8.10L98.71-8.10Q90.91-8.10 89.78-4.85L89.78-4.85L89.78-4.85Q89.58-4.22 89.58-3.49L89.58-3.49L89.58-3.49Q89.58-0.96 91.81-0.03L91.81-0.03L91.81-0.03Q92.70 0.33 93.70 0.33L93.70 0.33L93.70 0.33Q96.12 0.33 97.78-1.33L97.78-1.33L97.78-1.33Q98.38-1.96 98.68-2.66L98.68-2.66L98.68-2.66Q99.08 0.30 101.40 0.33zM94.79-1.00L94.79-1.00L94.79-1.00Q92.77-1.00 92.30-3.02L92.30-3.02L92.30-3.02Q92.21-3.49 92.21-4.05L92.21-4.05L92.21-4.05Q92.21-6.28 94.76-6.87L94.76-6.87L94.76-6.87Q96.12-7.17 98.71-7.21L98.71-7.21L98.71-4.55L98.71-4.55Q98.21-2.26 96.29-1.33L96.29-1.33L96.29-1.33Q95.53-1.00 94.79-1.00" fill="#ffffff" stroke="none" stroke-width="none" transform="translate(-114.69998168945312,8.277560988206131)" style="fill: rgb(255, 255, 255);"></path></g><g class="path" style="transform: matrix(0.01, 0, 0, 0.01, 0, 0); transform-origin: -0.764984px 1.05756px; animation: 2s linear 0.609231s 1 normal forwards running bounce-in-3c5d3fec-cefa-49dd-861d-9251e8cf5fb7;"><path d="M111.89-0.83L111.89-0.83L110.40-0.83L110.40-8.00L110.40-8.00Q110.50-11.09 112.59-12.45L112.59-12.45L112.59-12.45Q113.49-13.02 114.42-13.02L114.42-13.02L114.42-13.02Q116.44-13.02 117.17-11.12L117.17-11.12L117.17-11.12Q117.47-10.36 117.47-9.40L117.47-9.40L117.47-2.82L117.47-2.82Q117.47-1.29 116.61-1.00L116.61-1.00L116.61-1.00Q116.11-0.83 114.98-0.83L114.98-0.83L114.98 0L122.45 0L122.45 0Q122.45-0.73 121.96-0.80L121.96-0.80L121.96-0.80Q121.82-0.83 121.62-0.83L121.62-0.83L119.96-0.83L119.96-9.06L119.96-9.06Q119.96-12.38 117.67-13.81L117.67-13.81L117.67-13.81Q116.61-14.44 115.38-14.44L115.38-14.44L115.38-14.44Q112.92-14.44 111.33-12.48L111.33-12.48L111.33-12.48Q110.73-11.72 110.37-10.79L110.37-10.79L110.23-14.11L105.42-14.11L105.42-13.28L107.91-13.28L107.91-2.82L107.91-2.82Q107.91-1.29 107.05-1.00L107.05-1.00L107.05-1.00Q106.55-0.83 105.42-0.83L105.42-0.83L105.42 0L112.72 0L112.72 0Q112.72-0.73 112.23-0.80L112.23-0.80L112.23-0.80Q112.09-0.83 111.89-0.83" fill="#ffffff" stroke="none" stroke-width="none" transform="translate(-114.69998168945312,8.277560988206131)" style="fill: rgb(255, 255, 255);"></path></g><g class="path" style="transform: matrix(0.01, 0, 0, 0.01, 0, 0); transform-origin: 24.555px -1.68244px; animation: 2s linear 0.710769s 1 normal forwards running bounce-in-3c5d3fec-cefa-49dd-861d-9251e8cf5fb7;"><path d="M136.60-19.06L140.22-19.06L140.22-19.06Q143.17-19.06 144.04-16.40L144.04-16.40L144.04-16.40Q144.30-15.54 144.30-14.54L144.30-14.54L144.30-14.54Q144.30-10.23 140.45-9.79L140.45-9.79L140.45-9.79Q140.05-9.76 139.65-9.76L139.65-9.76L136.60-9.76L136.60-19.06zM131.09 0L139.92 0L139.92 0Q139.92-0.73 139.39-0.83L139.39-0.83L139.39-0.83Q139.22-0.86 139.05-0.86L139.05-0.86L136.60-0.86L136.60-8.80L139.52-8.80L139.52-8.80Q144.96-8.80 146.72-11.89L146.72-11.89L146.72-11.89Q147.42-13.05 147.42-14.58L147.42-14.58L147.42-14.58Q147.42-17.86 144.57-19.19L144.57-19.19L144.57-19.19Q143.04-19.92 140.91-19.92L140.91-19.92L131.09-19.92L131.09-19.06L133.74-19.06L133.74-0.86L131.09-0.86L131.09 0" fill="#ffffff" stroke="none" stroke-width="none" transform="translate(-114.69998168945312,8.277560988206131)" style="fill: rgb(255, 255, 255);"></path></g><g class="path" style="transform: matrix(0.01, 0, 0, 0.01, 0, 0); transform-origin: 42.235px 1.22256px; animation: 2s linear 0.812308s 1 normal forwards running bounce-in-3c5d3fec-cefa-49dd-861d-9251e8cf5fb7;"><path d="M152.57-7.07L152.57-7.07L152.57-7.07Q152.57-12.22 155.39-13.35L155.39-13.35L155.39-13.35Q156.12-13.61 156.92-13.61L156.92-13.61L156.92-13.61Q160.60-13.61 161.20-8.96L161.20-8.96L161.20-8.96Q161.30-8.17 161.30-7.21L161.30-7.21L161.30-7.21Q161.30-1.63 158.25-0.66L158.25-0.66L158.25-0.66Q157.65-0.50 157.02-0.50L157.02-0.50L157.02-0.50Q153.66-0.50 152.80-4.48L152.80-4.48L152.80-4.48Q152.57-5.64 152.57-7.07zM157.02-14.44L157.02-14.44L157.02-14.44Q153.83-14.44 151.71-12.25L151.71-12.25L151.71-12.25Q149.75-10.23 149.75-7.21L149.75-7.21L149.75-7.21Q149.75-3.02 152.80-0.93L152.80-0.93L152.80-0.93Q154.66 0.33 156.92 0.33L156.92 0.33L156.92 0.33Q160.11 0.33 162.20-1.93L162.20-1.93L162.20-1.93Q164.12-3.98 164.12-7.07L164.12-7.07L164.12-7.07Q164.12-11.26 161.04-13.28L161.04-13.28L161.04-13.28Q159.21-14.44 157.02-14.44" fill="#ffffff" stroke="none" stroke-width="none" transform="translate(-114.69998168945312,8.277560988206131)" style="fill: rgb(255, 255, 255);"></path></g><g class="path" style="transform: matrix(0.01, 0, 0, 0.01, 0, 0); transform-origin: 60.115px -2.34744px; animation: 2s linear 0.913846s 1 normal forwards running bounce-in-3c5d3fec-cefa-49dd-861d-9251e8cf5fb7;"><path d="M177.84-3.52L178.10 0L182.85 0L182.85 0Q182.85-0.73 182.35-0.80L182.35-0.80L182.35-0.80Q182.22-0.83 182.02-0.83L182.02-0.83L180.36-0.83L180.29-21.58L174.65-21.58L174.65-20.75L177.80-20.75L177.80-12.65L177.80-12.65Q176.18-14.44 173.42-14.44L173.42-14.44L173.42-14.44Q169.77-14.44 167.91-11.19L167.91-11.19L167.91-11.19Q166.78-9.20 166.78-6.71L166.78-6.71L166.78-6.71Q166.78-2.59 169.37-0.70L169.37-0.70L169.37-0.70Q170.83 0.33 172.59 0.33L172.59 0.33L172.59 0.33Q176.21 0.27 177.84-3.52L177.84-3.52zM169.60-7.11L169.60-7.11L169.60-7.11Q169.60-11.79 172.13-13.18L172.13-13.18L172.13-13.18Q172.92-13.61 173.88-13.61L173.88-13.61L173.88-13.61Q176.31-13.61 177.34-11.02L177.34-11.02L177.34-11.02Q177.90-9.63 177.90-7.74L177.90-7.74L177.90-7.74Q177.90-3.75 175.91-1.96L175.91-1.96L175.91-1.96Q174.85-1.00 173.49-1.00L173.49-1.00L173.49-1.00Q170.76-1.00 169.93-4.32L169.93-4.32L169.93-4.32Q169.60-5.54 169.60-7.11" fill="#ffffff" stroke="none" stroke-width="none" transform="translate(-114.69998168945312,8.277560988206131)" style="fill: rgb(255, 255, 255);"></path></g><g class="path" style="transform: matrix(0.01, 0, 0, 0.01, 0, 0); transform-origin: 78.305px -2.34744px; animation: 2s linear 1.01538s 1 normal forwards running bounce-in-3c5d3fec-cefa-49dd-861d-9251e8cf5fb7;"><path d="M196.03-3.52L196.30 0L201.04 0L201.04 0Q201.04-0.73 200.55-0.80L200.55-0.80L200.55-0.80Q200.41-0.83 200.21-0.83L200.21-0.83L198.55-0.83L198.49-21.58L192.84-21.58L192.84-20.75L196.00-20.75L196.00-12.65L196.00-12.65Q194.37-14.44 191.62-14.44L191.62-14.44L191.62-14.44Q187.96-14.44 186.10-11.19L186.10-11.19L186.10-11.19Q184.97-9.20 184.97-6.71L184.97-6.71L184.97-6.71Q184.97-2.59 187.56-0.70L187.56-0.70L187.56-0.70Q189.03 0.33 190.79 0.33L190.79 0.33L190.79 0.33Q194.40 0.27 196.03-3.52L196.03-3.52zM187.80-7.11L187.80-7.11L187.80-7.11Q187.80-11.79 190.32-13.18L190.32-13.18L190.32-13.18Q191.12-13.61 192.08-13.61L192.08-13.61L192.08-13.61Q194.50-13.61 195.53-11.02L195.53-11.02L195.53-11.02Q196.10-9.63 196.10-7.74L196.10-7.74L196.10-7.74Q196.10-3.75 194.11-1.96L194.11-1.96L194.11-1.96Q193.04-1.00 191.68-1.00L191.68-1.00L191.68-1.00Q188.96-1.00 188.13-4.32L188.13-4.32L188.13-4.32Q187.80-5.54 187.80-7.11" fill="#ffffff" stroke="none" stroke-width="none" transform="translate(-114.69998168945312,8.277560988206131)" style="fill: rgb(255, 255, 255);"></path></g><g class="path" style="transform: matrix(0.01, 0, 0, 0.01, 0, 0); transform-origin: 95.64px 1.22256px; animation: 2s linear 1.11692s 1 normal forwards running bounce-in-3c5d3fec-cefa-49dd-861d-9251e8cf5fb7;"><path d="M214.82 0.33L214.82 0.33L214.82 0.33Q217.38 0.33 217.65-2.76L217.65-2.76L217.65-2.76Q217.68-2.96 217.68-3.12L217.68-3.12L216.82-3.15L216.82-3.15Q216.58-0.73 215.52-0.70L215.52-0.70L215.52-0.70Q214.66-0.76 214.63-2.42L214.63-2.42L214.63-9.43L214.63-9.43Q214.63-14.18 209.88-14.44L209.88-14.44L209.88-14.44Q209.58-14.44 209.28-14.44L209.28-14.44L209.28-14.44Q205.56-14.44 204.30-12.72L204.30-12.72L204.30-12.72Q203.90-12.15 203.90-11.59L203.90-11.59L203.90-11.59Q203.90-10.56 204.86-10.39L204.86-10.39L204.86-10.39Q205.03-10.36 205.20-10.36L205.20-10.36L205.20-10.36Q205.96-10.36 206.32-11.32L206.32-11.32L206.32-11.32Q206.79-12.55 206.96-12.78L206.96-12.78L206.96-12.78Q207.59-13.61 208.91-13.61L208.91-13.61L208.91-13.61Q212.04-13.41 212.13-10.19L212.13-10.19L212.13-8.10L212.13-8.10Q204.33-8.10 203.20-4.85L203.20-4.85L203.20-4.85Q203.00-4.22 203.00-3.49L203.00-3.49L203.00-3.49Q203.00-0.96 205.23-0.03L205.23-0.03L205.23-0.03Q206.13 0.33 207.12 0.33L207.12 0.33L207.12 0.33Q209.54 0.33 211.21-1.33L211.21-1.33L211.21-1.33Q211.80-1.96 212.10-2.66L212.10-2.66L212.10-2.66Q212.50 0.30 214.82 0.33zM208.22-1.00L208.22-1.00L208.22-1.00Q206.19-1.00 205.73-3.02L205.73-3.02L205.73-3.02Q205.63-3.49 205.63-4.05L205.63-4.05L205.63-4.05Q205.63-6.28 208.18-6.87L208.18-6.87L208.18-6.87Q209.54-7.17 212.13-7.21L212.13-7.21L212.13-4.55L212.13-4.55Q211.64-2.26 209.71-1.33L209.71-1.33L209.71-1.33Q208.95-1.00 208.22-1.00" fill="#ffffff" stroke="none" stroke-width="none" transform="translate(-114.69998168945312,8.277560988206131)" style="fill: rgb(255, 255, 255);"></path></g><g class="path" style="transform: matrix(0.01, 0, 0, 0.01, 0, 0); transform-origin: 110.12px 1.12256px; animation: 2s linear 1.21846s 1 normal forwards running bounce-in-3c5d3fec-cefa-49dd-861d-9251e8cf5fb7;"><path d="M226.28-0.83L226.28-0.83L223.89-0.83L223.89-7.44L223.89-7.44Q223.89-10.46 225.75-12.29L225.75-12.29L225.75-12.29Q226.48-12.98 226.98-13.02L226.98-13.02L226.98-13.02Q227.54-13.02 228.01-12.19L228.01-12.19L228.01-12.19Q228.54-11.26 229.00-11.12L229.00-11.12L229.00-11.12Q229.20-11.06 229.40-11.06L229.40-11.06L229.40-11.06Q230.40-11.06 230.66-12.02L230.66-12.02L230.66-12.02Q230.73-12.22 230.73-12.42L230.73-12.42L230.73-12.42Q230.73-13.91 229.20-14.24L229.20-14.24L229.20-14.24Q228.87-14.31 228.57-14.31L228.57-14.31L228.57-14.31Q226.58-14.31 225.02-12.62L225.02-12.62L225.02-12.62Q224.29-11.82 223.86-10.82L223.86-10.82L223.72-14.11L218.91-14.11L218.91-13.28L221.40-13.28L221.40-2.82L221.40-2.82Q221.40-1.29 220.54-1.00L220.54-1.00L220.54-1.00Q220.04-0.83 218.91-0.83L218.91-0.83L218.91 0L227.11 0L227.11 0Q227.11-0.73 226.61-0.80L226.61-0.80L226.61-0.80Q226.48-0.83 226.28-0.83" fill="#ffffff" stroke="none" stroke-width="none" transform="translate(-114.69998168945312,8.277560988206131)" style="fill: rgb(255, 255, 255);"></path></g></g>
</g>
</g>
<style id="bounce-in-3c5d3fec-cefa-49dd-861d-9251e8cf5fb7" data-anikit="">@keyframes bounce-in-3c5d3fec-cefa-49dd-861d-9251e8cf5fb7
{
  0% {
    animation-timing-function: cubic-bezier(0.0383,0.3388,0.0421,0.6652);
    transform: matrix(0.01,0,0,0.01,0,0);
    opacity: 1;
  }
  4.7% {
    animation-timing-function: cubic-bezier(0.3296,0.3336,0.5772,0.6672);
    transform: matrix(0.556,0,0,0.556,0,0);
    opacity: 1;
  }
  8.4% {
    animation-timing-function: cubic-bezier(0.0781,0.1617,0.0874,0.9301);
    transform: matrix(0.979,0,0,0.979,0,0);
    opacity: 1;
  }
  12.4% {
    animation-timing-function: cubic-bezier(0.8341,0.1496,0.8634,0.7673);
    transform: matrix(1.153,0,0,1.153,0,0);
    opacity: 1;
  }
  16.3% {
    animation-timing-function: cubic-bezier(0.3264,0.3332,0.5758,0.6695);
    transform: matrix(1.008,0,0,1.008,0,0);
    opacity: 1;
  }
  21.2% {
    animation-timing-function: cubic-bezier(0.0921,0.1883,0.3277,1);
    transform: matrix(0.704,0,0,0.704,0,0);
    opacity: 1;
  }
  24.5% {
    animation-timing-function: cubic-bezier(0.6905,0.0944,0.8759,0.7624);
    transform: matrix(0.626,0,0,0.626,0,0);
    opacity: 1;
  }
  27.7% {
    animation-timing-function: cubic-bezier(0.3688,0.332,0.624,0.6684);
    transform: matrix(0.704,0,0,0.704,0,0);
    opacity: 1;
  }
  32.6% {
    animation-timing-function: cubic-bezier(0.1368,0.2364,0.2451,0.9049);
    transform: matrix(0.958,0,0,0.958,0,0);
    opacity: 1;
  }
  37.4% {
    animation-timing-function: cubic-bezier(0.5936,0.0846,0.3495,1);
    transform: matrix(1.085,0,0,1.085,0,0);
    opacity: 1;
  }
  49.5% {
    animation-timing-function: cubic-bezier(0.5522,0.0981,0.3807,1);
    transform: matrix(0.802,0,0,0.802,0,0);
    opacity: 1;
  }
  62.4% {
    animation-timing-function: cubic-bezier(0.4497,0.1349,0.4911,1);
    transform: matrix(1.044,0,0,1.044,0,0);
    opacity: 1;
  }
  74.1% {
    animation-timing-function: cubic-bezier(0.429,0,0.5239,1);
    transform: matrix(0.914,0,0,0.914,0,0);
    opacity: 1;
  }
  87% {
    animation-timing-function: cubic-bezier(0.3501,0,0.6422,1);
    transform: matrix(1.013,0,0,1.013,0,0);
    opacity: 1;
  }
  95.8% {
    animation-timing-function: cubic-bezier(0.3653,0,0.6776,1);
    transform: matrix(0.992,0,0,0.992,0,0);
    opacity: 1;
  }
  100% {
    transform: matrix(1,0,0,1,0,0);
    opacity: 1;
  }
}</style></svg>